[Header]
FileType HTR
DataType HTRS
FileVersion 1
NumSegments 22
NumFrames 4
DataFrameRate 24
EulerRotationOrder ZYX
CalibrationUnits mm
RotationUnits Degrees
GlobalAxisofGravity Y
BoneLengthAxis Y
ScaleFactor 1.0
[SegmentNames&Hierarchy]
reference	GLOBAL
Hips	reference
Spine	Hips
Spine1	Spine
Neck	Spine1
Head	Neck
LeftShoulder	Spine1
LeftArm	LeftShoulder
LeftForeArm	LeftArm
LeftHand	LeftForeArm
RightShoulder	Spine1
RightArm	RightShoulder
RightForeArm	RightArm
RightHand	RightForeArm
LeftUpLeg	Hips
LeftLeg	LeftUpLeg
LeftFoot	LeftLeg
LeftToeBase	LeftFoot
RightUpLeg	Hips
RightLeg	RightUpLeg
RightFoot	RightLeg
RightToeBase	RightFoot
[BasePosition]
reference	0	0	0	0	0	0	1
Hips	0	0	0	0	0	0	1
Spine	0	0	0	-0	-90	0	1
Spine1	0	0	0	0	0	0	1
Neck	0	0	0	82.64767223	-82.64767223	-90	1
Head	0	0	0	-0	-90	0	1
LeftShoulder	0	0	0	0	0	0	1
LeftArm	0	0	0	0	0	0	1
LeftForeArm	0	0	0	0	0	0	1
LeftHand	0	0	0	0	0	0	1
RightShoulder	0	0	0	0	-0	180	1
RightArm	0	0	0	0	-0	180	1
RightForeArm	0	0	0	0	-0	180	1
RightHand	0	0	0	0	-0	180	1
LeftUpLeg	0	0	0	-0	90	0	1
LeftLeg	0	0	0	-0	90	0	1
LeftFoot	0	0	0	-23.42853957	23.42853957	-90	1
LeftToeBase	0	0	0	0	-0	-90	1
RightUpLeg	0	0	0	-0	90	0	1
RightLeg	0	0	0	-0	90	0	1
RightFoot	0	0	0	-23.42853957	23.42853957	-90	1
RightToeBase	0	0	0	0	-0	-90	1
[reference]
12	0	0	0	0	-0	0	1.0
13	0	0	0	0	-0	0	1.0
14	0	0	0	0	-0	0	1.0
15	0	0	0	0	-0	0	1.0
[Hips]
12	4.947490215	0.02346999943	8.00755024	2.588153124	0.5830160379	-108.8447876	1.0
13	4.947490215	0.02346999943	8.00755024	2.806313992	0.01429283898	-112.6426849	1.0
14	4.947490215	0.02346999943	8.00755024	3.353666067	0.2994621396	-113.1751862	1.0
15	4.947490215	0.02346999943	8.00755024	3.205061436	0.6753004789	-115.6266479	1.0
[Spine]
12	0	0	0.7457100153	61.08444214	89.22883606	69.81060028	1.0
13	0	0	0.7457100153	143.1152039	88.91719055	151.8889923	1.0
14	0	0	0.7457100153	162.4446106	89.1780014	171.4827728	1.0
15	0	0	0.7457100153	144.0992889	89.36125946	153.0617828	1.0
[Spine1]
12	0	0	2.140589952	10.80831242	-0.9226317406	0.1552591324	1.0
13	0	0	2.140589952	10.28805923	-1.0740695	0.09696289152	1.0
14	0	0	2.140589952	10.0193758	-1.003148675	-0.02704522759	1.0
15	0	0	2.140589952	9.858360291	-0.6410006881	0.0337019302	1.0
[Neck]
12	0	0	2.32246995	82.55931091	79.07685852	95.48958588	1.0
13	0	0	2.32246995	77.49832916	77.59712219	90.59581757	1.0
14	0	0	2.32246995	76.25137329	77.18203735	89.61959839	1.0
15	0	0	2.32246995	74.07689667	76.35560608	87.65232849	1.0
[Head]
12	0	-0.1818799973	1.409579992	-73.93821716	94.33848572	-69.64096832	1.0
13	0	-0.1818799973	1.409579992	-70.15847015	95.98078918	-66.65881348	1.0
14	0	-0.1818799973	1.409579992	-71.58200073	96.36955261	-68.30043793	1.0
15	0	-0.1818799973	1.409579992	-75.35772705	97.06645203	-72.3181839	1.0
[LeftShoulder]
12	0.3668199778	0.02662999928	1.946700096	-18.51072311	5.686764717	-14.63291836	1.0
13	0.3668199778	0.02662999928	1.946700096	-18.94895554	5.081079006	-14.70463085	1.0
14	0.3668199778	0.02662999928	1.946700096	-19.23675728	4.708920002	-14.62759399	1.0
15	0.3668199778	0.02662999928	1.946700096	-19.5664978	4.012153625	-14.15089035	1.0
[LeftArm]
12	1.140689969	0	0	82.41088867	71.25790405	34.29730225	1.0
13	1.140689969	0	0	77.07731628	73.08927917	24.59396172	1.0
14	1.140689969	0	0	75.70584106	73.49201965	22.01483536	1.0
15	1.140689969	0	0	68.43893433	74.11534882	13.32747936	1.0
[LeftForeArm]
12	2.749800205	0	0	-16.76067734	-5.689725876	-13.44889259	1.0
13	2.749800205	0	0	-13.92035866	-8.136359215	-18.65685844	1.0
14	2.749800205	0	0	-12.40733719	-9.1291008	-20.1143055	1.0
15	2.749800205	0	0	-9.813710213	-10.61857986	-24.07026482	1.0
[LeftHand]
12	2.295179844	0	0	-17.44579697	0.4453647137	-4.028627872	1.0
13	2.295179844	0	0	-15.29891872	0.6751583815	-6.785272598	1.0
14	2.295179844	0	0	-14.05149746	0.3467239738	-7.571708679	1.0
15	2.295179844	0	0	-12.05884838	-0.4401505589	-8.390174866	1.0
[RightShoulder]
12	-0.3601199985	0.02662999928	1.946700096	-7.106687069	2.665168524	-174.378479	1.0
13	-0.3601199985	0.02662999928	1.946700096	-6.143444538	2.397088528	-174.3105011	1.0
14	-0.3601199985	0.02662999928	1.946700096	-6.162177563	2.621935368	-174.3596497	1.0
15	-0.3601199985	0.02662999928	1.946700096	-5.155703545	2.998381615	-174.4979248	1.0
[RightArm]
12	-1.140689969	0	0	49.06748199	-80.11079407	-176.6635742	1.0
13	-1.140689969	0	0	53.75105667	-76.1781311	-190.6005402	1.0
14	-1.140689969	0	0	53.64065552	-74.8636322	-194.1360474	1.0
15	-1.140689969	0	0	53.10233688	-71.50204468	-199.8912048	1.0
[RightForeArm]
12	-2.749800205	0	0	0.1983093917	0.1335010231	-172.7112732	1.0
13	-2.749800205	0	0	3.804037571	-3.850486517	-174.9158325	1.0
14	-2.749800205	0	0	5.11686182	-5.171504498	-175.0780029	1.0
15	-2.749800205	0	0	7.011502266	-7.039838314	-175.0999298	1.0
[RightHand]
12	-2.295179844	0	0	0.3713838458	9.398345947	-177.7886963	1.0
13	-2.295179844	0	0	4.063425541	5.830720425	-178.2623444	1.0
14	-2.295179844	0	0	5.428402424	5.663781643	-178.1853333	1.0
15	-2.295179844	0	0	7.41062355	4.552656174	-177.5471802	1.0
[LeftUpLeg]
12	0.9094099998	0	0	-221.955307	-84.42476654	198.9433441	1.0
13	0.9094099998	0	0	-218.8945618	-84.09008789	200.7216034	1.0
14	0.9094099998	0	0	-217.3738861	-83.57579041	199.7233734	1.0
15	0.9094099998	0	0	-213.1467133	-83.30718994	199.0597076	1.0
[LeftLeg]
12	0	0	-4.498080254	24.13544083	-79.00985718	24.99686432	1.0
13	0	0	-4.498080254	7.048272133	-80.57917786	18.65824127	1.0
14	0	0	-4.498080254	12.71370316	-81.01654053	7.104566097	1.0
15	0	0	-4.498080254	-1.875283241	-84.05973816	8.604049683	1.0
[LeftFoot]
12	0	0	-3.729400158	-48.62666702	-4.750761986	113.9457092	1.0
13	0	0	-3.729400158	-49.66815948	-7.791141987	112.039505	1.0
14	0	0	-3.729400158	-48.4801712	-8.150921822	111.6260071	1.0
15	0	0	-3.729400158	-42.19256592	-8.662431717	108.3010864	1.0
[LeftToeBase]
12	0	-1.364109993	-0.5911099911	0	0	-9.999999975e-007	1.0
13	0	-1.364109993	-0.5911099911	0	0	-9.999999975e-007	1.0
14	0	-1.364109993	-0.5911099911	0	0	-9.999999975e-007	1.0
15	0	-1.364109993	-0.5911099911	0	0	-9.999999975e-007	1.0
[RightUpLeg]
12	-0.9094099998	0	0	3.810602665	-96.16840363	-11.50646305	1.0
13	-0.9094099998	0	0	37.90289307	-95.73030853	-40.79763794	1.0
14	-0.9094099998	0	0	38.31282043	-95.6149292	-40.4260025	1.0
15	-0.9094099998	0	0	41.96591949	-94.78561401	-40.56875992	1.0
[RightLeg]
12	0	0	-4.498080254	-56.55448151	-85.62754059	78.75808716	1.0
13	0	0	-4.498080254	-70.07837677	-85.79322815	85.31672668	1.0
14	0	0	-4.498080254	-80.09625244	-84.02602386	93.49581909	1.0
15	0	0	-4.498080254	-85.7850647	-83.8261261	95.07521057	1.0
[RightFoot]
12	0	0	-3.729400158	-43.86647797	-18.51093864	86.92418671	1.0
13	0	0	-3.729400158	-42.3794136	-17.97888374	88.02255249	1.0
14	0	0	-3.729400158	-41.44031525	-18.60774612	86.46476746	1.0
15	0	0	-3.729400158	-42.0740509	-17.98543167	88.69743347	1.0
[RightToeBase]
12	0	0	-0.5911099911	9.999999975e-007	9.999999975e-007	-1.999999995e-006	1.0
13	0	0	-0.5911099911	9.999999975e-007	9.999999975e-007	-1.999999995e-006	1.0
14	0	0	-0.5911099911	9.999999975e-007	9.999999975e-007	-1.999999995e-006	1.0
15	0	0	-0.5911099911	9.999999975e-007	9.999999975e-007	-1.999999995e-006	1.0
[EndOfFile]
